<svg width="16" height="16" viewBox="0 0 16 16" fill="none" xmlns="http://www.w3.org/2000/svg">
<g id="vuesax/outline/add-square">
<g id="add-square">
<path id="Vector" d="M10.6667 8.5H5.33337C5.06004 8.5 4.83337 8.27333 4.83337 8C4.83337 7.72667 5.06004 7.5 5.33337 7.5H10.6667C10.94 7.5 11.1667 7.72667 11.1667 8C11.1667 8.27333 10.94 8.5 10.6667 8.5Z" fill="#6400CA"/>
<path id="Vector_2" d="M8 11.1667C7.72667 11.1667 7.5 10.94 7.5 10.6667V5.33337C7.5 5.06004 7.72667 4.83337 8 4.83337C8.27333 4.83337 8.5 5.06004 8.5 5.33337V10.6667C8.5 10.94 8.27333 11.1667 8 11.1667Z" fill="#6400CA"/>
<path id="Vector_3" d="M10 15.1667H6.00004C2.38004 15.1667 0.833374 13.62 0.833374 10V6.00004C0.833374 2.38004 2.38004 0.833374 6.00004 0.833374H10C13.62 0.833374 15.1667 2.38004 15.1667 6.00004V10C15.1667 13.62 13.62 15.1667 10 15.1667ZM6.00004 1.83337C2.92671 1.83337 1.83337 2.92671 1.83337 6.00004V10C1.83337 13.0734 2.92671 14.1667 6.00004 14.1667H10C13.0734 14.1667 14.1667 13.0734 14.1667 10V6.00004C14.1667 2.92671 13.0734 1.83337 10 1.83337H6.00004Z" fill="#6400CA"/>
</g>
</g>
</svg>
