<svg width="16" height="16" viewBox="0 0 16 16" fill="none" xmlns="http://www.w3.org/2000/svg">
<g id="basil:edit-outline">
<path id="Vector" fill-rule="evenodd" clip-rule="evenodd" d="M14.3034 3.61071C14.3667 3.70685 14.3949 3.8219 14.3833 3.93644C14.3716 4.05098 14.3208 4.15798 14.2394 4.23938L8.11072 10.3674C8.04802 10.43 7.96979 10.4749 7.88405 10.4974L5.33138 11.164C5.247 11.1861 5.15834 11.1856 5.07418 11.1628C4.99002 11.1399 4.91331 11.0954 4.85165 11.0338C4.78999 10.9721 4.74552 10.8954 4.72267 10.8113C4.69982 10.7271 4.69938 10.6384 4.72138 10.554L5.38805 8.00205C5.40799 7.92562 5.44465 7.85458 5.49538 7.79405L11.6467 1.64672C11.7405 1.55308 11.8676 1.50049 12.0001 1.50049C12.1326 1.50049 12.2596 1.55308 12.3534 1.64672L14.2394 3.53205C14.2627 3.55661 14.2841 3.58291 14.3034 3.61071ZM13.1787 3.88538L12.0001 2.70738L6.32138 8.38605L5.90472 9.98138L7.50005 9.56472L13.1787 3.88538Z" fill="#6400CA"/>
<path id="Vector_2" d="M13.094 11.4401C13.2762 9.88268 13.3344 8.3133 13.268 6.74672C13.2664 6.7098 13.2725 6.67295 13.286 6.63852C13.2994 6.60409 13.3198 6.57283 13.346 6.54672L14.002 5.89072C14.0199 5.87269 14.0426 5.86022 14.0675 5.85481C14.0923 5.8494 14.1182 5.85128 14.142 5.86023C14.1658 5.86917 14.1865 5.88479 14.2016 5.90522C14.2168 5.92565 14.2257 5.95001 14.2273 5.97538C14.3504 7.83622 14.3036 9.7044 14.0873 11.5567C13.93 12.9047 12.8473 13.9614 11.5053 14.1114C9.17552 14.3692 6.82441 14.3692 4.49464 14.1114C3.1533 13.9614 2.06997 12.9047 1.91263 11.5567C1.63671 9.19363 1.63671 6.80647 1.91263 4.44338C2.06997 3.09538 3.15263 2.03872 4.49464 1.88872C6.26293 1.69342 8.04444 1.64592 9.82063 1.74672C9.84605 1.74854 9.87042 1.75761 9.89084 1.77286C9.91126 1.7881 9.92689 1.80888 9.93587 1.83273C9.94485 1.85658 9.9468 1.88251 9.94151 1.90743C9.93621 1.93236 9.92387 1.95525 9.90597 1.97338L9.24397 2.63472C9.21809 2.66062 9.18715 2.68091 9.15309 2.69433C9.11902 2.70774 9.08256 2.71401 9.04597 2.71272C7.56381 2.66195 6.07991 2.71877 4.60597 2.88272C4.17526 2.93039 3.7732 3.12187 3.46474 3.42622C3.15627 3.73057 2.95942 4.13002 2.90597 4.56005C2.63854 6.84559 2.63854 9.15451 2.90597 11.4401C2.95942 11.8701 3.15627 12.2695 3.46474 12.5739C3.7732 12.8782 4.17526 13.0697 4.60597 13.1174C6.84264 13.3674 9.1573 13.3674 11.3946 13.1174C11.8253 13.0697 12.2274 12.8782 12.5359 12.5739C12.8443 12.2695 13.0405 11.8701 13.094 11.4401Z" fill="#6400CA"/>
</g>
</svg>
