<svg width="25" height="24" viewBox="0 0 25 24" fill="none" xmlns="http://www.w3.org/2000/svg">
<g id="ic_EyeClosed_24px">
<path id="Vector (Stroke)" fill-rule="evenodd" clip-rule="evenodd" d="M5.11518 4.46967C5.40807 4.17678 5.88294 4.17678 6.17584 4.46967L20.1758 18.4697C20.4687 18.7626 20.4687 19.2374 20.1758 19.5303C19.8829 19.8232 19.4081 19.8232 19.1152 19.5303L5.11518 5.53033C4.82228 5.23744 4.82228 4.76256 5.11518 4.46967Z" fill="#494949"/>
<path id="Vector " d="M4.44598 3.76358L20.8448 20.1624" stroke="#494949" stroke-width="1.5" stroke-linecap="round"/>
<circle id="Ellipse " cx="12.6455" cy="12" r="3.23684" stroke="#494949" stroke-width="1.5"/>
<path id="Ellipse _2" d="M21.2402 10.3667C22.1389 11.297 22.1389 12.703 21.2402 13.6332C19.292 15.6501 16.126 18.1832 12.6455 18.1832C9.16508 18.1832 5.99911 15.6501 4.05084 13.6332C3.15218 12.703 3.15218 11.297 4.05084 10.3667C5.99911 8.34987 9.16508 5.81677 12.6455 5.81677C16.126 5.81677 19.292 8.34987 21.2402 10.3667Z" stroke="#494949" stroke-width="1.5"/>
</g>
</svg>
