<svg width="25" height="24" viewBox="0 0 25 24" fill="none" xmlns="http://www.w3.org/2000/svg">
<g id="Frame">
<path id="Vector" d="M4.77527 4.5H20.8845C21.0298 4.5 21.172 4.54221 21.2937 4.62149C21.4155 4.70077 21.5116 4.81371 21.5704 4.94658C21.6292 5.07946 21.6481 5.22655 21.6248 5.36998C21.6016 5.51341 21.5372 5.64699 21.4394 5.7545L15.2749 12.5355C15.1494 12.6735 15.0799 12.8534 15.0799 13.04V18.3486C15.0799 18.4721 15.0494 18.5936 14.9912 18.7025C14.9329 18.8114 14.8487 18.9042 14.7459 18.9726L11.7459 20.9727C11.633 21.048 11.5017 21.0912 11.3661 21.0977C11.2305 21.1043 11.0957 21.0739 10.976 21.0099C10.8563 20.9458 10.7562 20.8505 10.6865 20.734C10.6167 20.6176 10.5799 20.4844 10.5799 20.3486V13.04C10.5799 12.8534 10.5103 12.6735 10.3848 12.5355L4.22032 5.7545C4.12258 5.64699 4.05818 5.51341 4.03493 5.36998C4.01169 5.22655 4.03061 5.07946 4.08939 4.94658C4.14817 4.81371 4.24428 4.70077 4.36604 4.62149C4.48781 4.54221 4.62997 4.5 4.77527 4.5Z" stroke="white" stroke-width="2" stroke-linecap="round" stroke-linejoin="round"/>
</g>
</svg>
