<svg width="24" height="24" viewBox="0 0 24 24" fill="none" xmlns="http://www.w3.org/2000/svg">
<g id="kaaba 1" clip-path="url(#clip0_70_668)">
<path id="Vector" d="M16 15.008L18 13.948V15.08L16 16.14V15.008ZM10 16.068V17.2L12 18.26L14 17.2V16.068L12 17.128L10 16.068ZM6 15.08L8 16.14V15.008L6 13.948V15.08ZM23 5.82805V18.172L12 24.002L1 18.172V5.82805L12 -0.00195312L23 5.82805ZM22 6.96005L12 12.26L2 6.96005V8.82805L12 14.129L22 8.82805V6.96005ZM12 1.13005L2.568 6.12905L12 11.129L21.432 6.12905L12 1.13005ZM22 17.57V12.96L20 14.02V12.888L22 11.828V9.96005L12 15.26L2 9.96005V11.828L4 12.888V14.02L2 12.96V17.57L12 22.87L22 17.57Z" fill="#6400CA"/>
</g>
<defs>
<clipPath id="clip0_70_668">
<rect width="24" height="24" fill="white"/>
</clipPath>
</defs>
</svg>
