<svg width="25" height="24" viewBox="0 0 25 24" fill="none" xmlns="http://www.w3.org/2000/svg">
<g id="Interface essential/Menu-4">
<g id="Icon">
<path fill-rule="evenodd" clip-rule="evenodd" d="M4.25 7.5C4.25 5.567 5.817 4 7.75 4C9.683 4 11.25 5.567 11.25 7.5C11.25 9.433 9.683 11 7.75 11C5.817 11 4.25 9.433 4.25 7.5ZM9.75 7.5C9.75 6.39543 8.85457 5.5 7.75 5.5C6.64543 5.5 5.75 6.39543 5.75 7.5C5.75 8.60457 6.64543 9.5 7.75 9.5C8.85457 9.5 9.75 8.60457 9.75 7.5Z" fill="#A2A2A2"/>
<path fill-rule="evenodd" clip-rule="evenodd" d="M14.25 7.5C14.25 5.567 15.817 4 17.75 4C19.683 4 21.25 5.567 21.25 7.5C21.25 9.433 19.683 11 17.75 11C15.817 11 14.25 9.433 14.25 7.5ZM19.75 7.5C19.75 6.39543 18.8546 5.5 17.75 5.5C16.6454 5.5 15.75 6.39543 15.75 7.5C15.75 8.60457 16.6454 9.5 17.75 9.5C18.8546 9.5 19.75 8.60457 19.75 7.5Z" fill="#A2A2A2"/>
<path fill-rule="evenodd" clip-rule="evenodd" d="M4.25 17.5C4.25 15.567 5.817 14 7.75 14C9.683 14 11.25 15.567 11.25 17.5C11.25 19.433 9.683 21 7.75 21C5.817 21 4.25 19.433 4.25 17.5ZM9.75 17.5C9.75 16.3954 8.85457 15.5 7.75 15.5C6.64543 15.5 5.75 16.3954 5.75 17.5C5.75 18.6046 6.64543 19.5 7.75 19.5C8.85457 19.5 9.75 18.6046 9.75 17.5Z" fill="#A2A2A2"/>
<path fill-rule="evenodd" clip-rule="evenodd" d="M14.25 17.5C14.25 15.567 15.817 14 17.75 14C19.683 14 21.25 15.567 21.25 17.5C21.25 19.433 19.683 21 17.75 21C15.817 21 14.25 19.433 14.25 17.5ZM19.75 17.5C19.75 16.3954 18.8546 15.5 17.75 15.5C16.6454 15.5 15.75 16.3954 15.75 17.5C15.75 18.6046 16.6454 19.5 17.75 19.5C18.8546 19.5 19.75 18.6046 19.75 17.5Z" fill="#A2A2A2"/>
</g>
</g>
</svg>
