<svg width="25" height="24" viewBox="0 0 25 24" fill="none" xmlns="http://www.w3.org/2000/svg">
<g id="grid / grid_big_round">
<path id="coolicon" d="M16.25 19C15.0366 19 13.9427 18.2691 13.4784 17.1481C13.014 16.027 13.2707 14.7367 14.1287 13.8787C14.9867 13.0207 16.277 12.764 17.3981 13.2284C18.5191 13.6927 19.25 14.7866 19.25 16C19.25 16.7956 18.9339 17.5587 18.3713 18.1213C17.8087 18.6839 17.0456 19 16.25 19ZM8.25 19C6.59315 19 5.25 17.6569 5.25 16C5.25 14.3431 6.59315 13 8.25 13C9.90685 13 11.25 14.3431 11.25 16C11.25 16.7956 10.9339 17.5587 10.3713 18.1213C9.80871 18.6839 9.04565 19 8.25 19ZM16.25 11C14.5931 11 13.25 9.65685 13.25 8C13.25 6.34315 14.5931 5 16.25 5C17.9069 5 19.25 6.34315 19.25 8C19.25 9.65685 17.9069 11 16.25 11ZM8.25 11C6.59315 11 5.25 9.65685 5.25 8C5.25 6.34315 6.59315 5 8.25 5C9.90685 5 11.25 6.34315 11.25 8C11.25 8.79565 10.9339 9.55871 10.3713 10.1213C9.80871 10.6839 9.04565 11 8.25 11Z" fill="#6400CA"/>
</g>
</svg>
