<svg width="22" height="22" viewBox="0 0 22 22" fill="none" xmlns="http://www.w3.org/2000/svg">
<g id="Group">
<path id="Vector" d="M17.9232 7.92308C17.9232 12.5385 11.0001 17.9231 11.0001 17.9231C11.0001 17.9231 4.07703 12.5385 4.07703 7.92308C4.07703 4.15231 7.22933 1 11.0001 1C14.7709 1 17.9232 4.15231 17.9232 7.92308Z" stroke="#6400CA" stroke-width="1.5" stroke-linecap="round" stroke-linejoin="round"/>
<path id="Vector_2" d="M17.2723 15.6154H18.6923L21 21H1L3.30769 15.6154H4.72769M11 10.2307C11.612 10.2307 12.199 9.98761 12.6318 9.55483C13.0646 9.12206 13.3077 8.53509 13.3077 7.92305C13.3077 7.31101 13.0646 6.72404 12.6318 6.29126C12.199 5.85849 11.612 5.61536 11 5.61536C10.388 5.61536 9.80099 5.85849 9.36822 6.29126C8.93544 6.72404 8.69231 7.31101 8.69231 7.92305C8.69231 8.53509 8.93544 9.12206 9.36822 9.55483C9.80099 9.98761 10.388 10.2307 11 10.2307Z" stroke="#6400CA" stroke-width="1.5" stroke-linecap="round" stroke-linejoin="round"/>
</g>
</svg>
