<svg width="16" height="16" viewBox="0 0 16 16" fill="none" xmlns="http://www.w3.org/2000/svg">
<path id="Vector" d="M9.55555 0C5.99634 0 3.11109 2.88528 3.11109 6.44445C3.11109 7.98392 3.65092 9.39726 4.55154 10.5056L0.195268 14.862C-0.0650883 15.1223 -0.0650883 15.5444 0.195268 15.8047C0.43189 16.0414 0.80229 16.063 1.06327 15.8693L1.13802 15.8047L5.49439 11.4485C6.60274 12.3491 8.01608 12.8889 9.55555 12.8889C13.1147 12.8889 16 10.0037 16 6.44445C16 2.88528 13.1147 0 9.55555 0ZM9.55555 1.33334C12.3783 1.33334 14.6667 3.62166 14.6667 6.44445C14.6667 9.26721 12.3783 11.5556 9.55555 11.5556C6.73279 11.5556 4.44443 9.26721 4.44443 6.44445C4.44443 3.62166 6.73279 1.33334 9.55555 1.33334Z" fill="#6400CA"/>
</svg>
