<svg width="20" height="20" viewBox="0 0 20 20" fill="none" xmlns="http://www.w3.org/2000/svg">
<g id="sign-out-alt 1" clip-path="url(#clip0_70_661)">
<path id="Vector" d="M10.4367 12.5C10.6577 12.5 10.8696 12.5878 11.0259 12.7441C11.1822 12.9004 11.27 13.1123 11.27 13.3333V15.8333C11.27 16.4964 11.5334 17.1323 12.0022 17.6011C12.4711 18.0699 13.107 18.3333 13.77 18.3333H15.8333C16.4964 18.3333 17.1323 18.0699 17.6011 17.6011C18.0699 17.1323 18.3333 16.4964 18.3333 15.8333V4.16667C18.3333 3.50363 18.0699 2.86774 17.6011 2.3989C17.1323 1.93006 16.4964 1.66667 15.8333 1.66667H13.77C13.107 1.66667 12.4711 1.93006 12.0022 2.3989C11.5334 2.86774 11.27 3.50363 11.27 4.16667V6.66667C11.27 6.88768 11.1822 7.09964 11.0259 7.25592C10.8696 7.4122 10.6577 7.5 10.4367 7.5C10.2157 7.5 10.0037 7.4122 9.84741 7.25592C9.69113 7.09964 9.60333 6.88768 9.60333 6.66667V4.16667C9.60466 3.062 10.0441 2.00296 10.8252 1.22185C11.6063 0.440735 12.6653 0.00132321 13.77 0H15.8333C16.938 0.00132321 17.997 0.440735 18.7782 1.22185C19.5593 2.00296 19.9987 3.062 20 4.16667V15.8333C19.9987 16.938 19.5593 17.997 18.7782 18.7782C17.997 19.5593 16.938 19.9987 15.8333 20H13.77C12.6653 19.9987 11.6063 19.5593 10.8252 18.7782C10.0441 17.997 9.60466 16.938 9.60333 15.8333V13.3333C9.60333 13.1123 9.69113 12.9004 9.84741 12.7441C10.0037 12.5878 10.2157 12.5 10.4367 12.5Z" fill="#6400CA"/>
<path id="Vector_2" d="M0.944168 8.23245L4.76583 4.41078C4.84271 4.33119 4.93466 4.2677 5.03633 4.22403C5.138 4.18035 5.24735 4.15737 5.358 4.1564C5.46865 4.15544 5.57838 4.17653 5.6808 4.21843C5.78321 4.26033 5.87625 4.32221 5.9545 4.40045C6.03274 4.47869 6.09462 4.57174 6.13652 4.67415C6.17842 4.77656 6.1995 4.8863 6.19854 4.99695C6.19758 5.1076 6.17459 5.21695 6.13092 5.31862C6.08725 5.42029 6.02376 5.51224 5.94417 5.58911L2.3925 9.14161L15 9.16661C15.221 9.16661 15.433 9.25441 15.5893 9.41069C15.7455 9.56697 15.8333 9.77893 15.8333 9.99995C15.8333 10.221 15.7455 10.4329 15.5893 10.5892C15.433 10.7455 15.221 10.8333 15 10.8333L2.34334 10.8074L5.94584 14.4108C6.02543 14.4876 6.08891 14.5796 6.13259 14.6813C6.17626 14.7829 6.19925 14.8923 6.20021 15.0029C6.20117 15.1136 6.18009 15.2233 6.13819 15.3257C6.09629 15.4282 6.03441 15.5212 5.95616 15.5994C5.87792 15.6777 5.78488 15.7396 5.68246 15.7815C5.58005 15.8234 5.47032 15.8444 5.35967 15.8435C5.24902 15.8425 5.13967 15.8195 5.038 15.7759C4.93633 15.7322 4.84437 15.6687 4.7675 15.5891L0.945835 11.7674C0.476936 11.2988 0.213347 10.6632 0.213036 10.0003C0.212723 9.33738 0.475711 8.70149 0.944168 8.23245Z" fill="#6400CA"/>
</g>
<defs>
<clipPath id="clip0_70_661">
<rect width="20" height="20" fill="white" transform="matrix(-1 0 0 1 20 0)"/>
</clipPath>
</defs>
</svg>
