<svg width="16" height="12" viewBox="0 0 16 12" fill="none" xmlns="http://www.w3.org/2000/svg">
<g id="Group">
<path id="Vector" d="M14.3627 5.36337C14.5654 5.64737 14.6667 5.79004 14.6667 6.00004C14.6667 6.21071 14.5654 6.35271 14.3627 6.63671C13.452 7.91404 11.126 10.6667 8.00004 10.6667C4.87337 10.6667 2.54804 7.91337 1.63737 6.63671C1.43471 6.35271 1.33337 6.21004 1.33337 6.00004C1.33337 5.78937 1.43471 5.64737 1.63737 5.36337C2.54804 4.08604 4.87404 1.33337 8.00004 1.33337C11.1267 1.33337 13.452 4.08671 14.3627 5.36337Z" stroke="#6400CA" stroke-linecap="round" stroke-linejoin="round"/>
<path id="Vector_2" d="M10 6C10 5.46957 9.78929 4.96086 9.41421 4.58579C9.03914 4.21071 8.53043 4 8 4C7.46957 4 6.96086 4.21071 6.58579 4.58579C6.21071 4.96086 6 5.46957 6 6C6 6.53043 6.21071 7.03914 6.58579 7.41421C6.96086 7.78929 7.46957 8 8 8C8.53043 8 9.03914 7.78929 9.41421 7.41421C9.78929 7.03914 10 6.53043 10 6Z" stroke="#6400CA" stroke-linecap="round" stroke-linejoin="round"/>
</g>
</svg>
